<svg width="16" height="16" viewBox="0 0 16 16" fill="none" xmlns="http://www.w3.org/2000/svg">
<path d="M8 16C3.58172 16 0 12.4183 0 8C0 3.58172 3.58172 0 8 0C12.4183 0 16 3.58172 16 8C16 12.4183 12.4183 16 8 16Z" fill="url(#paint0_linear_2_1)"/>
<path d="M12.9873 7.66168C12.8001 4.90586 10.4151 2.8245 7.66058 3.0117C6.2884 3.10522 5.08339 3.74449 4.24239 4.70216L4.23989 4.70049C4.23389 4.70816 4.22872 4.71583 4.22356 4.7235C3.38838 5.68717 2.91838 6.96756 3.01171 8.34029C3.02038 8.47132 3.03571 8.59967 3.05455 8.72703C3.05455 8.7332 3.05621 8.7382 3.05705 8.7442C3.06988 8.82805 3.08455 8.91206 3.10071 8.99424C3.11604 9.0702 3.13315 9.14579 3.15205 9.22095C3.72972 11.524 5.8869 13.1551 8.33925 12.9883C11.0938 12.8009 13.1756 10.4157 12.9883 7.66001L12.9873 7.66168ZM11.8989 7.73602C11.9221 8.07508 11.9006 8.40714 11.8399 8.7272C11.8399 8.72553 11.8383 8.72386 11.8383 8.72203C11.4753 7.83621 10.7583 7.1961 10.1284 6.84253C10.2559 5.34144 9.74676 4.70816 9.17009 4.60548C9.05835 4.58448 8.9435 4.58656 8.83259 4.61157C8.72168 4.63658 8.61706 4.68401 8.52514 4.75093C8.43322 4.81786 8.35595 4.90287 8.29807 5.00074C8.2402 5.09862 8.20294 5.2073 8.18858 5.3201C8.17454 5.42892 8.18209 5.53944 8.21081 5.64533C8.23953 5.75122 8.28885 5.85041 8.35594 5.93721C8.42304 6.02401 8.5066 6.09673 8.60183 6.15119C8.69706 6.20565 8.80209 6.24079 8.91092 6.2546C8.95109 6.25977 8.99042 6.26143 9.02892 6.2606C9.03173 6.31417 9.03317 6.36781 9.03326 6.42146C8.50009 6.28977 8.00208 6.2631 7.54775 6.30427C7.37689 6.31548 7.20687 6.33692 7.03858 6.36845C7.09524 5.8617 7.28591 5.29176 7.65475 4.87586C8.01142 4.47279 8.54209 4.24258 9.12042 4.30159C9.23009 4.31276 9.34726 4.3401 9.45243 4.37527C9.45759 4.37694 9.46276 4.3786 9.46709 4.37944C10.8071 4.92553 11.7938 6.19809 11.8981 7.73602H11.8989ZM8.41375 8.49949C8.41375 8.49949 8.41375 8.50032 8.41292 8.50116C8.2865 8.68286 8.14326 8.85225 7.98508 9.00708C7.74552 8.75398 7.5427 8.46847 7.38258 8.15893C7.37491 8.14259 7.36641 8.12809 7.35858 8.11176V8.11009C7.26474 7.90948 7.1897 7.70061 7.13441 7.48615C7.48941 7.4023 7.83775 7.37146 8.17075 7.3878L8.22375 7.3903H8.22542C8.43425 7.40747 8.65159 7.44597 8.87659 7.50765C8.77214 7.85891 8.61646 8.19283 8.41459 8.49866L8.41375 8.49949ZM6.70574 4.31193L6.70324 4.31526C6.11707 5.07189 5.9219 6.01239 5.93057 6.73468C4.56656 7.37479 4.27389 8.13226 4.47239 8.68335C4.47739 8.69886 4.48356 8.71336 4.48956 8.72803C4.57508 8.93235 4.73821 9.09435 4.9431 9.17844C5.14799 9.26252 5.37787 9.2618 5.58223 9.17644C5.78652 9.0909 5.94849 8.92775 6.03256 8.72282C6.11663 8.5179 6.11591 8.28798 6.03057 8.08358C6.01503 8.04729 5.99705 8.01209 5.97673 7.97823C6.01957 7.94989 6.06573 7.92189 6.1154 7.89272C6.26757 8.42081 6.49274 8.86672 6.75541 9.23978C6.85041 9.38098 6.95307 9.517 7.06508 9.64802C6.59791 9.85256 6.00923 9.97241 5.46406 9.86106C4.93706 9.75337 4.47239 9.40931 4.23372 8.87855C4.188 8.77447 4.15358 8.66577 4.13105 8.55433C4.11698 8.45862 4.10642 8.36243 4.09939 8.26595C3.97772 6.47464 5.08856 4.88019 6.70574 4.31193ZM8.26475 11.9006C7.20124 11.9733 6.2069 11.6105 5.45556 10.9651C6.40374 11.0944 7.31591 10.7931 7.93725 10.4243C9.17359 11.2861 9.97626 11.1611 10.3544 10.7135C10.4285 10.6272 10.4842 10.5265 10.518 10.4179C10.5518 10.3092 10.563 10.1947 10.551 10.0816C10.539 9.9684 10.504 9.85887 10.4481 9.75972C10.3922 9.66057 10.3167 9.57389 10.2261 9.505C10.1389 9.43847 10.0394 9.3898 9.93329 9.36175C9.82722 9.33371 9.71667 9.32684 9.60795 9.34155C9.49923 9.35626 9.39448 9.39225 9.29967 9.44746C9.20486 9.50268 9.12187 9.57604 9.05542 9.66336C9.03159 9.69503 9.01009 9.72937 8.99126 9.76354C8.94592 9.74037 8.89792 9.7147 8.84926 9.68653C9.19762 9.32706 9.4831 8.91159 9.69376 8.45748C9.76919 8.30378 9.83547 8.14575 9.89226 7.98423C10.3031 8.28729 10.7018 8.73653 10.8781 9.26446C11.0484 9.77454 10.9833 10.3496 10.6428 10.8214C10.5755 10.9129 10.4986 10.997 10.4134 11.0721L10.4101 11.0754C9.79478 11.5602 9.04729 11.8475 8.26575 11.8997L8.26475 11.9006Z" fill="white"/>
<defs>
<linearGradient id="paint0_linear_2_1" x1="0" y1="16" x2="16" y2="0" gradientUnits="userSpaceOnUse">
<stop stop-color="#FF26BF"/>
<stop offset="1" stop-color="#02D0FD"/>
</linearGradient>
</defs>
</svg>
