<svg width="24" height="24" viewBox="0 0 24 24" fill="none" xmlns="http://www.w3.org/2000/svg">
    <g transform="translate(-6, -6) scale(1.5 1.5)">
        <path d="M12 20C7.58172 20 4 16.4183 4 12C4 7.58172 7.58172 4 12 4C16.4183 4 20 7.58172 20 12C20 16.4183 16.4183 20 12 20Z" fill="#37FF9C"/>
        <path d="M11.9628 9.19541C10.4232 9.21235 9.17636 10.5396 9.19534 12.1409C9.20076 12.5503 9.28478 12.94 9.43658 13.293C9.45826 13.3467 9.52603 13.358 9.56397 13.3156L10.1793 12.652C10.2199 12.6096 10.2362 12.5475 10.2254 12.4882C10.201 12.3639 10.1874 12.2369 10.1874 12.107C10.1874 11.0705 10.9952 10.229 11.9899 10.229C12.2145 10.229 12.3479 10.2294 12.421 10.2303C12.4153 10.2336 12.4094 10.2367 12.4034 10.2395C12.3327 10.2434 12.2531 10.2483 12.2881 10.2544C12.3276 10.2613 12.368 10.2556 12.4034 10.2395L12.4223 10.2384C12.4951 10.2345 12.5451 10.2318 12.421 10.2303C12.437 10.2208 12.4517 10.209 12.4643 10.1951L13.0769 9.53711C13.1121 9.49757 13.1013 9.43545 13.0525 9.41285C12.7164 9.26883 12.3477 9.18976 11.9601 9.19541H11.9628Z" fill="black"/>
        <path d="M14.8047 12.0324C14.8236 13.5395 13.5768 14.7887 12.0372 14.8046H12.0399C11.6523 14.8099 11.2836 14.7355 10.9475 14.6C10.8987 14.5813 10.8879 14.5202 10.9231 14.483L11.5357 13.8637C11.5483 13.8506 11.563 13.8395 11.579 13.8306C11.6521 13.8314 11.7855 13.8318 12.0101 13.8318C13.0048 13.8318 13.8126 13.0398 13.8126 12.0643C13.8126 11.9421 13.799 11.8225 13.7746 11.7055C13.7638 11.6497 13.7801 11.5912 13.8207 11.5513L14.436 10.9267C14.474 10.8869 14.5417 10.8975 14.5634 10.948C14.7152 11.2802 14.7992 11.647 14.8047 12.0324Z" fill="black"/>
        <path d="M11.5966 13.822C11.5906 13.8246 11.5847 13.8274 11.579 13.8306C11.4549 13.8292 11.5049 13.8267 11.5777 13.8229L11.5966 13.822Z" fill="black"/>
        <path d="M11.7119 13.8079C11.6724 13.8015 11.632 13.8067 11.5966 13.822C11.6673 13.8183 11.7469 13.8136 11.7119 13.8079Z" fill="black"/>
        <path d="M9.37743 13.7442L10.5735 12.5482C10.8165 12.3051 11.2088 12.3051 11.4518 12.5482C11.6949 12.7912 11.6949 13.1835 11.4518 13.4265L10.2558 14.6226C10.0127 14.8656 9.6205 14.8656 9.37743 14.6226C9.13435 14.3795 9.13435 13.9873 9.37743 13.7442Z" fill="black"/>
        <path d="M13.7442 9.37743L12.5482 10.5735C12.3051 10.8165 12.3051 11.2088 12.5482 11.4518C12.7912 11.6949 13.1835 11.6949 13.4265 11.4518L14.6226 10.2558C14.8656 10.0127 14.8656 9.6205 14.6226 9.37743C14.3795 9.13435 13.9873 9.13435 13.7442 9.37743Z" fill="black"/>
        <path fill-rule="evenodd" clip-rule="evenodd" d="M12 7C9.23881 7 7 9.23881 7 12C7 14.7612 9.23881 17 12 17C14.7612 17 17 14.7612 17 12C17 9.23881 14.7612 7 12 7ZM12 16.1151C9.72921 16.1151 7.88486 14.2735 7.88486 12C7.88486 9.72655 9.72655 7.88486 12 7.88486C14.2735 7.88486 16.1151 9.72655 16.1151 12C16.1151 14.2735 14.2735 16.1151 12 16.1151Z" fill="black"/>
    </g>
</svg>
