<svg width="16" height="16" viewBox="0 0 16 16" fill="none" xmlns="http://www.w3.org/2000/svg">
<path d="M8 16C3.58172 16 0 12.4183 0 8C0 3.58172 3.58172 0 8 0C12.4183 0 16 3.58172 16 8C16 12.4183 12.4183 16 8 16Z" fill="#17B5CB"/>
<g clip-path="url(#clip0_6513_52327)">
<path d="M11.9281 4H12.9785L8.71949 8.78584C8.61157 8.90619 8.60438 9.09027 8.71229 9.2177L11.1655 12.0283H10.072L7.80582 9.42301L7.69071 9.28142C7.5828 9.16106 7.58999 8.96991 7.6979 8.84956L11.9281 4Z" fill="white"/>
<path d="M9.56113 9.21773C9.48919 9.13985 9.4676 9.02658 9.48919 8.92746C9.51077 8.87082 9.54674 8.81419 9.58991 8.77171L9.87048 8.46729L13 12.0283H12.0072C12.0072 12.0283 10.1726 9.91861 9.56113 9.21773Z" fill="white"/>
<path d="M4.09353 12.0283H3L6.35252 8.21239C6.46043 8.09204 6.46043 7.90796 6.35252 7.78761L3.02878 4H4.07914L7.42446 7.81593C7.51079 7.9292 7.52518 8.09204 7.43165 8.19823C6.55396 9.19646 4.09353 12.0283 4.09353 12.0283Z" fill="white"/>
<path d="M5.92077 4H4.91357L8.01429 7.53274C8.01429 7.53274 8.02149 7.52566 8.36681 7.12212C8.46034 7.01593 8.48192 6.88142 8.37401 6.77522C7.72652 6.12389 5.92077 4 5.92077 4Z" fill="white"/>
<path d="M8.94243 6.46372L11.0935 4H10.0719L8.94962 5.2885L8.62588 5.66372C8.51797 5.78407 8.51077 5.96814 8.61869 6.09558C8.69782 6.18761 8.94243 6.46372 8.94243 6.46372Z" fill="white"/>
<path d="M7.07198 9.5647L4.9209 12.0284H5.93529L7.05759 10.7399L7.38133 10.3647C7.48924 10.2443 7.49644 10.0603 7.38852 9.93284C7.30939 9.8408 7.07198 9.5647 7.07198 9.5647Z" fill="white"/>
</g>
<defs>
<clipPath id="clip0_6513_52327">
<rect width="10" height="8" fill="white" transform="translate(3 4)"/>
</clipPath>
</defs>
</svg>
