<svg width="16" height="16" viewBox="0 0 16 16" fill="none" xmlns="http://www.w3.org/2000/svg">
    <path d="M8 16C3.58172 16 0 12.4183 0 8C0 3.58172 3.58172 0 8 0C12.4183 0 16 3.58172 16 8C16 12.4183 12.4183 16 8 16Z" fill="#0E152C"/>
    <path d="M6.90539 12.9757L8.44765 11.3628C8.47374 11.3385 8.45624 11.2982 8.41296 11.2982H6.71476C6.70173 11.2963 6.68964 11.2907 6.68007 11.2822L5.24188 9.78216C5.23328 9.76616 5.22438 9.74988 5.23328 9.73359L7.64183 5.88687C7.65043 5.87087 7.65043 5.85459 7.64183 5.84687L6.64538 4.24967C6.62819 4.22567 6.58491 4.22567 6.56741 4.24967L3.00647 9.94388C3.00222 9.95132 3 9.95961 3 9.96803C3 9.97645 3.00222 9.98474 3.00647 9.99217L5.86535 12.9837C5.87395 12.992 5.88254 13 5.90004 13H6.8704C6.87899 12.992 6.8968 12.984 6.90539 12.9757Z" fill="white"/>
    <path d="M6.95727 3.62085L7.96231 2.02422C7.9795 1.99193 8.02309 1.99193 8.03169 2.02422L12.9964 9.92737C13.005 9.94352 12.9966 9.95938 12.9881 9.97552L12.9878 9.97594L10.1287 12.9678C10.1191 12.9763 10.107 12.982 10.094 12.9841H7.77168C7.7284 12.9841 7.7112 12.9438 7.73699 12.9195L9.28815 11.2903L10.7438 9.77422C10.761 9.75822 10.761 9.74194 10.7524 9.72565L6.95727 3.66113C6.94867 3.65313 6.94867 3.63713 6.95727 3.62085Z" fill="white"/>
</svg>
