<svg width="16" height="16" viewBox="0 0 64 64" fill="none" xmlns="http://www.w3.org/2000/svg">
    <circle cx="32" cy="32" r="32" fill="#958FDC"/>
    <path d="M50.2271 43.2158C50.2344 42.2294 53.9963 42.2717 53.9706 41.3496C53.9522 40.6387 52.2862 40.6552 52.8097 39.1509C53.5812 36.9099 54 34.5036 54 32C54 19.8492 44.1471 10 32 10C19.8492 10 10 19.8492 10 32C9.9975 34.4899 10.4186 36.962 11.2454 39.3107C11.5577 40.3081 10.0037 40.6993 10.0037 41.2945C10.0037 42.2276 13.277 42.1027 13.277 43.1864C13.277 44.1343 10.0423 44.4245 10.0423 45.3796C10.0423 46.6967 17.2078 46.2374 17.2978 47.3708C17.3695 48.247 14.8364 48.2984 14.8199 49.2334C14.796 50.7249 24.6012 50.2363 24.6012 51.23C24.6012 51.9813 20.1413 51.7094 20.1413 52.5966C20.1413 53.4838 26.0119 54.0477 32.4813 54.0477C38.9507 54.0477 43.416 53.3277 43.416 52.5489C43.416 51.7719 39.2501 51.9335 39.3364 51.23C39.487 50.0048 48.7301 50.6312 48.7301 49.215C48.7301 48.4674 46.1879 48.2929 46.2687 47.4883C46.3862 46.3495 54 46.5203 54 45.3392C54 44.4116 50.2289 44.182 50.2326 43.2195L50.2271 43.2158ZM44.3308 40.3577C44.1287 41.109 46.4469 41.221 46.4469 42.0053C46.4469 42.9587 39.3786 42.5784 39.4484 43.8404C39.4925 44.6339 44.4704 44.768 44.3749 45.5982C44.239 46.7995 36.6675 46.2007 36.5921 47.3506C36.537 48.1955 40.2879 48.2231 40.2952 48.9927C40.3026 49.6411 37.3489 49.9938 31.6988 49.9938C25.2569 49.9938 22.1288 49.6466 22.4833 48.9229C22.8157 48.247 28.5173 48.3719 28.4604 47.3083C28.4016 46.2466 18.3357 46.5607 18.0307 45.5303C17.7791 44.6743 21.3389 44.4979 21.3169 43.6842C21.293 42.8558 16.756 43.0432 16.6568 42.0402C16.5925 41.379 19.0281 41.4231 18.9234 40.5928C18.8463 39.9903 17.8397 40.0748 17.2446 38.8294C16.0973 36.3527 15.5923 33.627 15.7761 30.9037C15.9599 28.1804 16.8266 25.5472 18.2963 23.2472C19.766 20.9471 21.7913 19.0542 24.1853 17.7432C26.5793 16.4322 29.265 15.7452 31.9945 15.7457C34.6703 15.745 37.3048 16.405 39.6642 17.6671C42.0237 18.9292 44.035 20.7543 45.5197 22.9804C47.0043 25.2065 47.9164 27.7647 48.1749 30.4279C48.4334 33.0912 48.0304 35.7771 47.0016 38.2471C46.2393 39.9774 44.5218 39.6303 44.3253 40.3595H44.329L44.3308 40.3577Z" fill="black"/>
</svg>
