<svg fill="none" height="32" viewBox="0 0 24 24" width="32" xmlns="http://www.w3.org/2000/svg"><path d="m6.1792 13.4407.43419-.1912 5.38951-2.3423 5.8238 2.5335-2.1869 4.5172-5.3497.7568-4.02327-4.3419z" fill="#133444"/><path d="m16.6158 10.652c-.96-1.15913-2.3264-1.91199-3.8162-2.11116-.0318-.00399-.0637-.00797-.0956-.01195-.466-.05577-.9361-.05577-1.4021 0-.0319.00398-.0637.00796-.0956.01195-1.49379.19917-2.85612.95203-3.81612 2.11116l-.24299.4024-.40232.6692-.29478.4899c-.00398.012-.01195.0279-.01593.0399l-.00398.0079.65328.3864 4.12284 2.4419.7967.47v-5.83569l-.7967.36249v-.87237l.7967-.36249.7966.36249 4.0591 1.84437z" fill="#c42370"/><path d="m18.006 14.8905c0 1.9439-.9242 3.7603-2.3542 4.9314-.5617.4621-1.207.8206-1.8961 1.0517-.5656.1872-1.1552.2828-1.7487.2828-3.3182 0-6.007-2.9477-6.007-6.2659 0-.49.05975-.976.17527-1.454l5.82773 3.4497 5.8237-3.4457c.1195.474.1793.964.1793 1.45z" fill="#1c4d6b"/><path d="m11.3019 8.53307.7011.31868-.7967.36249v-.72498z" fill="#000"/><path d="m11.2063 10.0864.7967-.36252v5.83972l-.7967-.4741z" fill="#000"/><path d="m12.0029 9.72388v5.83972l5.5808-3.3023z" fill="#1d4259"/><path d="m12.0029 3v6.724l5.5808 2.5374z" fill="#4b6b9a"/><path d="m12.0032 9.72399v5.83571l-.7967-.4701-4.78008-2.8282-.00796-.004.01195-.0039c.00398-.012.01195-.0279.01593-.0399l.6971-1.1592 4.06306-1.84029v.87639z" fill="#343535"/><path d="m12.0029 9.72388v5.83972l-.7967-.4741-4.7801-2.8242-.00398-.004.00797-.004 4.77611-2.1709z" fill="#3e5578"/><path d="m12.0029 3v6.724l-5.58078 2.5374z" fill="#6db2d8"/><g fill="#335f8a"><path d="m9.74438 20.6785c.08366.0358.16731.0717.25096.1035-.08365-.0318-.1673-.0637-.25096-.1035z"/><path d="m9.99536 20.7817c.08364.0319.17124.0638.25894.0917-.0877-.0279-.1753-.0558-.25894-.0917z"/><path d="m10.4734 20.9453c.0677.0199.1314.0359.1992.0518-.0638-.0159-.1315-.0359-.1992-.0518z"/></g><path d="m6.17925 13.4404 5.82375 3.4457c-.0797.5258-.2191 1.0357-.4183 1.5296-.466 1.1273-1.4061 2.3184-3.2305 1.4101-1.43403-1.1711-2.3542-2.9915-2.3542-4.9354 0-.486.05975-.9759.17925-1.45z" fill="#6db2d8"/><path d="m15.6477 19.8257-.0159.012c-.0319.0239-.0598.0478-.0917.0717l-.0079.008c-.0319.0278-.0677.0517-.0996.0756-.0359.0279-.0717.0558-.1116.0797-.0398.0239-.0756.0518-.1115.0797-.0358.0279-.0677.0438-.0996.0677l-.0199.012c-.0358.0239-.0717.0438-.1036.0677-.0039.004-.0079.004-.0119.0079-.0359.0239-.0717.0439-.1076.0638-.0358.0199-.0796.0478-.1195.0677-.0398.0239-.0796.0438-.1195.0637l-.0039.004c-.0399.0199-.0797.0398-.1195.0598-.0399.0199-.0797.0398-.1235.0597-.0439.0199-.0837.0398-.1235.0558-.0837.0358-.1673.0717-.251.1035-.0836.0319-.1713.0638-.2589.0917-.0358.0119-.0677.0239-.1036.0318-.0358.012-.0796.0239-.1155.0359-.0677.0199-.1314.0358-.1992.0518-.0239.0079-.0517.0119-.0756.0199l-.0439.008c-.0358.0079-.0717.0159-.1075.0239-.0359.0079-.0637.0119-.0996.0199-.0358.0079-.0597.0119-.0916.0159s-.0677.012-.0996.0159c-.0159.004-.0319.004-.0478.008l-.0757.008-.0438.004c-.0279.0039-.0558.0079-.0837.0079-.0358.004-.0677.008-.1035.008-.0279 0-.0518.004-.0797.008-.0279 0-.0478.0039-.0717.0039h-.004c-.0279 0-.0557.004-.0796.004-.0359 0-.0757.004-.1116.004-.0358 0-.0757 0-.1155 0s-.0757 0-.1155 0-.0757 0-.1116-.004c-.0278 0-.0557-.004-.0836-.004h-.004c-.0239 0-.0478-.0039-.0717-.0039s-.0518-.004-.0797-.008c-.0358-.004-.0677-.004-.1035-.008-.0279-.004-.0558-.004-.0837-.0079l-.0398-.004c-.0239-.004-.0518-.008-.0757-.008-.0159 0-.0319-.004-.0478-.008-.0319-.0039-.0677-.0079-.0996-.0159-.0318-.004-.0597-.0119-.0916-.0159s-.0637-.012-.0996-.0199c-.0319-.008-.0717-.016-.1075-.0239l-.0439-.008c-.0239-.004-.0517-.012-.0756-.0199-.0678-.016-.1315-.0359-.1992-.0518l-.1195-.0359c-.0359-.0119-.0677-.0199-.1036-.0318-.0876-.0279-.1713-.0598-.2589-.0917-.08764-.0318-.17129-.0677-.25096-.1035-.03983-.0199-.08365-.0359-.12348-.0558-.03984-.0199-.08365-.0398-.12349-.0597-.03983-.02-.07967-.0399-.1195-.0598l-.00398-.004c-.03984-.0199-.07967-.0438-.1195-.0637-.03984-.0199-.07967-.0438-.11951-.0677-.03983-.0239-.0717-.0438-.10755-.0638l-.01195-.0079c-.03585-.0199-.0717-.0438-.10357-.0677l-.01992-.012c-.03186-.0199-.06771-.0438-.09958-.0677s-.07569-.0518-.11154-.0797-.0717-.0518-.11153-.0797c-.03585-.0278-.06772-.0517-.09959-.0756l-.00796-.008c-.03187-.0239-.05975-.0478-.09162-.0717l-.01594-.012c1.82047.9083 2.76447-.2868 3.23057-1.4101.1991-.4899.3386-1.0038.4182-1.5296.0797.5258.2191 1.0357.4183 1.5296.482 1.1233 1.4221 2.3144 3.2425 1.4101z" fill="#529bba"/><path d="m13.3293 20.9971c.0678-.0159.1355-.0359.1992-.0518-.0637.0199-.1314.0359-.1992.0518z" fill="#335f8a"/><path d="m13.7517 20.8775c.0876-.0279.1713-.0597.2589-.0916-.0836.0319-.1713.0597-.2589.0916z" fill="#335f8a"/><path d="m14.0107 20.782c.0837-.0318.1673-.0677.251-.1035-.0797.0398-.1673.0717-.251.1035z" fill="#335f8a"/><path d="m18.0059 14.8904c0 1.9439-.9241 3.7603-2.3542 4.9354-1.8204.9083-2.7645-.2868-3.2305-1.4101-.1992-.4899-.3386-1.0038-.4183-1.5296l5.8238-3.4457c.1195.4741.1792.964.1792 1.45z" fill="#4b6b9a"/></svg>