<svg width="16" height="16" viewBox="0 0 16 16" fill="none" xmlns="http://www.w3.org/2000/svg">
<path d="M8 16C3.58172 16 0 12.4183 0 8C0 3.58172 3.58172 0 8 0C12.4183 0 16 3.58172 16 8C16 12.4183 12.4183 16 8 16Z" fill="#7E1DEB"/>
<path d="M4 6.61039V5.57143C4 5.25584 4.34112 5 4.7619 5H6.14719C6.56797 5 6.90909 5.25584 6.90909 5.57143V6.41043C6.90909 6.55509 6.98571 6.69383 7.1221 6.79612C7.40612 7.00914 7.86661 7.00914 8.15062 6.79612L10.3223 5.16737C10.4652 5.0602 10.659 5 10.861 5H11.2381C11.6589 5 12 5.25584 12 5.57143V5.85422C12 6.00577 11.9197 6.15111 11.7768 6.25828L9.60517 7.88703C9.32115 8.10005 9.32115 8.44541 9.60517 8.65842C9.74156 8.76071 9.92654 8.81818 10.1194 8.81818H11.2381C11.6589 8.81818 12 9.07402 12 9.38961V10.4286C12 10.7442 11.6589 11 11.2381 11H9.85281C9.43203 11 9.09091 10.7442 9.09091 10.4286V9.58957C9.09091 9.44491 9.01429 9.30617 8.8779 9.20388C8.59388 8.99086 8.13339 8.99086 7.84938 9.20388L5.6777 10.8326C5.53482 10.9398 5.34102 11 5.13895 11H4.7619C4.34112 11 4 10.7442 4 10.4286V10.1458C4 9.99423 4.08027 9.84889 4.22316 9.74172L6.39483 8.11297C6.67885 7.89995 6.67885 7.55459 6.39483 7.34158C6.25844 7.23929 6.07346 7.18182 5.88057 7.18182H4.7619C4.34112 7.18182 4 6.92598 4 6.61039Z" fill="white"/>
</svg>
